#!OML:ASF H:\Terrain\Patient Classification 1\Takeo\Monday\TakeoMonday.ASF
:FULLY-SPECIFIED
:DEGREES
827
root 9.43867 16.1215 -3.36684 24.5254 12.5214 4.74419
lowerback 36.7947 0.486087 14.6263
upperback 17.3971 5.2725 -0.824205
thorax 2.42482 3.90102 -9.9291
lowerneck -15.5253 -2.24308 2.36235
upperneck 21.3165 -3.48394 -0.427765
head 9.21811 -1.4226 -0.961522
rclavicle -7.95139e-014 -4.45278e-014
rhumerus 36.6499 41.316 -47.0173
rradius 47.8998
rwrist -22.9323
rhand -36.571 25.1069
rfingers 7.12502
rthumb -9.66072 -4.65162
lclavicle -7.95139e-014 -4.45278e-014
lhumerus -17.1401 -12.5868 86.6759
lradius 67.9688
lwrist 43.5241
lhand -17.6823 17.97
lfingers 7.12502
lthumb 8.57696 47.7758
rfemur -64.9815 -23.7609 29.4624
rtibia 62.7493
rfoot -22.6301 -8.9121
rtoes -0.901034
lfemur -63.0114 1.54522 -27.4702
ltibia 53.577
lfoot -9.86428 -3.12761
ltoes 1.66392
828
root 9.42159 16.1641 -3.35061 24.2485 12.0408 4.80384
lowerback 36.5818 0.887954 13.6849
upperback 17.368 5.4349 -0.804251
thorax 2.37689 3.90299 -9.476
lowerneck -15.218 -2.07191 2.24277
upperneck 21.4471 -3.18825 -0.519046
head 9.21123 -1.30416 -0.934082
rclavicle 6.67916e-014 6.04305e-014
rhumerus 36.7196 42.2619 -46.7584
rradius 48.2797
rwrist -22.6241
rhand -36.5956 25.4194
rfingers 7.12502
rthumb -9.68444 -4.33793
lclavicle 6.67916e-014 6.04305e-014
lhumerus -17.2773 -12.2607 86.6088
lradius 67.7613
lwrist 43.7452
lhand -18.1118 16.8185
lfingers 7.12502
lthumb 8.16244 46.6408
rfemur -64.1144 -23.0799 28.876
rtibia 62.1255
rfoot -22.3215 -9.26609
rtoes -0.263718
lfemur -62.3554 1.96857 -27.5986
ltibia 53.1269
lfoot -9.84677 -3.01448
ltoes 0.498927
829
root 9.42844 16.2087 -3.34522 23.7173 11.5977 4.74643
lowerback 36.725 1.03019 13.2361
upperback 17.3449 5.48264 -0.877401
thorax 2.26222 3.8889 -9.34866
lowerneck -14.4087 -1.93643 1.91147
upperneck 20.8336 -2.9393 -0.333998
head 8.86257 -1.20847 -0.768998
rclavicle 5.08889e-014 1.03368e-014
rhumerus 36.6189 43.1049 -46.7951
rradius 48.581
rwrist -21.9822
rhand -36.3484 25.6777
rfingers 7.12502
rthumb -9.44596 -4.09064
lclavicle 5.08889e-014 1.03368e-014
lhumerus -17.4132 -11.7253 86.8371
lradius 67.4401
lwrist 43.5715
lhand -18.2168 16.4444
lfingers 7.12502
lthumb 8.06112 46.2707
rfemur -63.1039 -22.6181 28.368
rtibia 61.4951
rfoot -21.8935 -9.42621
rtoes -0.269788
lfemur -61.4503 2.27463 -27.5904
ltibia 52.6627
lfoot -10.0086 -2.74531
ltoes -0.828286
830
root 9.43568 16.2569 -3.33537 23.0952 11.4863 4.34297
lowerback 36.8253 0.995268 13.2673
upperback 17.3051 5.4644 -0.864356
thorax 2.18395 3.8713 -9.35024
lowerneck -14.0877 -1.74184 1.40302
upperneck 20.5609 -2.7006 0.348856
head 8.73255 -1.07208 -0.420561
rclavicle 6.36111e-015 9.54166e-015
rhumerus 36.6608 43.9787 -46.5165
rradius 49.1529
rwrist -21.7529
rhand -36.2516 26.0747
rfingers 7.12502
rthumb -9.35261 -3.69781
lclavicle 6.36111e-015 9.54166e-015
lhumerus -17.5126 -11.0467 87.1672
lradius 67.0887
lwrist 43.0338
lhand -17.9298 16.4866
lfingers 7.12502
lthumb 8.33811 46.302
rfemur -61.999 -22.2819 28.3224
rtibia 60.8378
rfoot -21.626 -9.65584
rtoes -0.564525
lfemur -60.5537 2.51827 -27.1232
ltibia 52.2577
lfoot -10.1327 -2.69804
ltoes -1.2777
831
root 9.4482 16.2982 -3.32385 22.8404 11.6952 4.36159
lowerback 36.4992 0.826814 13.2596
upperback 17.2239 5.2284 -0.886635
thorax 2.14756 3.74973 -9.30321
lowerneck -14.3231 -1.52533 0.899947
upperneck 20.9719 -2.44782 1.01535
head 8.93492 -0.917853 -0.0868306
rclavicle 1.04958e-013 -3.02153e-014
rhumerus 36.8079 44.8786 -46.0491
rradius 49.7884
rwrist -21.8339
rhand -36.0496 26.4902
rfingers 7.12502
rthumb -9.15763 -3.29098
lclavicle 1.04958e-013 -3.02153e-014
lhumerus -17.6578 -10.487 87.189
lradius 67.0371
lwrist 42.7977
lhand -17.457 17.3836
lfingers 7.12502
lthumb 8.79432 47.1803
rfemur -61.2152 -22.4573 28.1344
rtibia 60.1356
rfoot -21.4445 -9.75286
rtoes -0.0276078
lfemur -59.8594 2.35037 -27.1054
ltibia 51.6893
lfoot -9.97307 -2.59574
ltoes -2.93438
832
root 9.48727 16.3079 -3.33498 23.0993 11.763 3.8852
lowerback 35.6207 0.654032 13.848
upperback 17.0415 5.07676 -0.970254
thorax 2.28276 3.71475 -9.63788
lowerneck -14.3349 -1.34807 0.754513
upperneck 21.2684 -2.17421 1.01254
head 9.04045 -0.799335 -0.0324371
rclavicle 1.27222e-014 -8.74653e-015
rhumerus 36.8688 45.7211 -45.8078
rradius 50.1269
rwrist -21.4281
rhand -35.9729 27.1139
rfingers 7.12502
rthumb -9.08367 -2.67052
lclavicle 1.27222e-014 -8.74653e-015
lhumerus -17.8546 -10.2132 87.0873
lradius 67.1335
lwrist 42.882
lhand -17.5069 18.449
lfingers 7.12502
lthumb 8.74616 48.2478
rfemur -61.3134 -22.3798 28.6816
rtibia 59.4834
rfoot -21.1703 -9.66395
rtoes -0.088666
lfemur -60.1224 2.09295 -26.6418
ltibia 51.2862
lfoot -9.64951 -2.07813
ltoes -4.59107
833
root 9.48014 16.4061 -3.29165 21.7779 11.8806 4.10605
lowerback 36.3779 0.469193 13.3905
upperback 17.1977 4.83331 -0.929163
thorax 2.0875 3.5638 -9.30801
lowerneck -14.4881 -1.1704 0.967016
upperneck 21.6397 -1.88897 0.583404
head 9.18957 -0.691842 -0.18278
rclavicle -6.04305e-014 -2.22639e-014
rhumerus 37.0706 46.5763 -45.5284
rradius 50.4267
rwrist -20.5873
rhand -36.1022 27.3886
rfingers 7.12502
rthumb -9.20839 -2.39037
lclavicle -6.04305e-014 -2.22639e-014
lhumerus -17.9609 -10.0953 86.8788
lradius 67.2267
lwrist 43.0939
lhand -17.9429 18.9723
lfingers 7.12502
lthumb 8.3254 48.7882
rfemur -58.7763 -22.5489 27.6381
rtibia 58.6429
rfoot -21.5643 -9.70584
rtoes -0.317265
lfemur -57.8495 2.00145 -26.5605
ltibia 50.6265
lfoot -9.92691 -2.09298
ltoes -3.34463
834
root 9.52611 16.4039 -3.30428 22.4772 11.2272 4.08929
lowerback 35.0416 0.697916 13.1557
upperback 17.0977 4.83778 -1.18596
thorax 2.41752 3.57514 -9.44427
lowerneck -14.378 -1.0046 1.08998
upperneck 21.563 -1.60503 0.214121
head 9.13808 -0.593079 -0.294827
rclavicle 9.54166e-015 4.85035e-014
rhumerus 37.4236 47.4732 -45.1457
rradius 50.879
rwrist -20.1134
rhand -35.8314 27.3611
rfingers 7.12502
rthumb -8.94714 -2.42923
lclavicle 9.54166e-015 4.85035e-014
lhumerus -18.0326 -9.77664 86.7119
lradius 67.1539
lwrist 43.1215
lhand -17.6742 19.2705
lfingers 7.12502
lthumb 8.58475 49.076
rfemur -59.5631 -21.9487 27.5713
rtibia 58.0806
rfoot -20.9381 -9.6055
rtoes -0.294217
lfemur -58.5171 1.80523 -26.5984
ltibia 50.2761
lfoot -9.75526 -1.47293
ltoes -1.68266
835
root 9.4935 16.4818 -3.27132 21.2705 11.0498 3.54011
lowerback 35.7884 0.839398 12.72
upperback 17.1023 4.98423 -0.996602
thorax 2.13718 3.5828 -9.07366
lowerneck -13.9125 -0.851991 0.834059
upperneck 21.2571 -1.33904 0.259656
head 8.94953 -0.49069 -0.201591
rclavicle 3.18055e-015 7.95139e-015
rhumerus 37.6236 48.379 -44.846
rradius 51.4618
rwrist -20.1202
rhand -35.4825 27.567
rfingers 7.12502
rthumb -8.61042 -2.2374
lclavicle 3.18055e-015 7.95139e-015
lhumerus -18.1531 -9.32445 86.6852
lradius 66.8567
lwrist 43.0171
lhand -17.4532 19.1527
lfingers 7.12502
lthumb 8.79802 48.9493
rfemur -57.4092 -21.3059 27.4113
rtibia 57.3247
rfoot -21.0045 -10.0539
rtoes -0.109036
lfemur -56.8144 2.44567 -25.9331
ltibia 49.7135
lfoot -9.75997 -1.52815
ltoes -2.44188
836
root 9.52332 16.4747 -3.2856 21.7746 11.0628 3.40918
lowerback 34.5755 0.8005 12.9065
upperback 16.9888 4.83357 -1.10151
thorax 2.4233 3.53665 -9.21778
lowerneck -14.1774 -0.691765 0.58615
upperneck 21.8917 -1.1153 0.473643
head 9.22176 -0.378264 -0.0633226
rclavicle -3.18055e-015 -6.44062e-014
rhumerus 37.687 49.2763 -44.5055
rradius 51.9663
rwrist -19.8546
rhand -35.8112 28.2021
rfingers 7.12502
rthumb -8.92761 -1.58898
lclavicle -3.18055e-015 -6.44062e-014
lhumerus -18.287 -9.06542 86.5647
lradius 66.7432
lwrist 43.1947
lhand -18.0448 18.762
lfingers 7.12502
lthumb 8.22708 48.5818
rfemur -57.9406 -21.1521 27.6303
rtibia 56.869
rfoot -20.3691 -10.3294
rtoes 0.0315575
lfemur -57.3459 2.06146 -25.7791
ltibia 49.3947
lfoot -9.43739 -1.05919
ltoes -3.62471
837
root 9.53355 16.5162 -3.27044 21.3929 10.9293 3.69711
lowerback 34.3731 0.791714 12.4228
upperback 17.0312 4.65982 -1.20717
thorax 2.45304 3.42986 -9.03442
lowerneck -14.9392 -0.503282 0.713684
upperneck 22.9845 -0.858149 0.305573
head 9.74714 -0.257625 -0.115294
rclavicle -8.90555e-014 4.21423e-014
rhumerus 37.7922 50.2465 -44.1968
rradius 52.3265
rwrist -19.1451
rhand -36.4121 29.3507
rfingers 7.12502
rthumb -9.50747 -0.414793
lclavicle -8.90555e-014 4.21423e-014
lhumerus -18.4645 -8.80248 86.3352
lradius 66.6555
lwrist 43.4491
lhand -18.3263 17.9901
lfingers 7.12502
lthumb 7.9554 47.8204
rfemur -56.9834 -21.0654 26.9505
rtibia 56.2598
rfoot -20.1495 -10.5263
rtoes -0.128671
lfemur -56.4085 1.97364 -26.0292
ltibia 48.8523
lfoot -9.52718 -0.890355
ltoes -4.11776
